<svg width="14" height="14" viewBox="0 0 14 14" fill="none" xmlns="http://www.w3.org/2000/svg">
<rect width="14" height="14" rx="1" fill="#BF545B"/>
<g clip-path="url(#clip0)">
<path d="M8.51636 7L10.7907 4.65461C11.0698 4.3668 11.0698 3.90016 10.7907 3.61211L10.2852 3.09086C10.0061 2.80305 9.55364 2.80305 9.27432 3.09086L7 5.43625L4.72568 3.09086C4.44659 2.80305 3.99409 2.80305 3.71477 3.09086L3.20932 3.61211C2.93023 3.89992 2.93023 4.36656 3.20932 4.65461L5.48364 7L3.20932 9.34539C2.93023 9.6332 2.93023 10.0998 3.20932 10.3879L3.71477 10.9091C3.99386 11.197 4.44659 11.197 4.72568 10.9091L7 8.56375L9.27432 10.9091C9.55341 11.197 10.0061 11.197 10.2852 10.9091L10.7907 10.3879C11.0698 10.1001 11.0698 9.63344 10.7907 9.34539L8.51636 7Z" fill="#232F3E"/>
</g>
<defs>
<clipPath id="clip0">
<rect width="8" height="12" fill="white" transform="translate(3 1)"/>
</clipPath>
</defs>
</svg>
