<svg width="14" height="14" viewBox="0 0 14 14" fill="none" xmlns="http://www.w3.org/2000/svg">
<path d="M12.5 14H1.5C0.671562 14 0 13.3284 0 12.5V1.5C0 0.671562 0.671562 0 1.5 0H12.5C13.3284 0 14 0.671562 14 1.5V12.5C14 13.3284 13.3284 14 12.5 14ZM6.10356 10.9357L11.8536 5.18566C12.0488 4.99041 12.0488 4.67381 11.8536 4.47856L11.1465 3.77147C10.9512 3.57622 10.6346 3.57619 10.4393 3.77147L5.75 8.46078L3.56066 6.27144C3.36541 6.07619 3.04881 6.07619 2.85353 6.27144L2.14644 6.97853C1.95119 7.17378 1.95119 7.49038 2.14644 7.68563L5.39644 10.9356C5.59172 11.1309 5.90828 11.1309 6.10356 10.9357Z" fill="#4ED864"/>
</svg>
