<svg width="110" height="76" viewBox="0 0 110 76" fill="none" xmlns="http://www.w3.org/2000/svg">
<path d="M13.056 48.936H23.328V57H2.4V23.016H13.056V48.936Z" fill="#B8D0EC"/>
<path d="M17.056 44.936H27.328V53H6.4V19.016H17.056V44.936Z" fill="#3F8BE4"/>
<path d="M36.536 21.528V26.424H42.296V28.656H36.536V33.768H43.016V36H33.8V19.296H43.016V21.528H36.536ZM56.4419 32.592H49.4579L48.2579 36H45.4019L51.3779 19.296H54.5459L60.5219 36H57.6419L56.4419 32.592ZM55.6739 30.36L52.9619 22.608L50.2259 30.36H55.6739ZM75.1923 24.12C74.7603 23.288 74.1603 22.664 73.3923 22.248C72.6243 21.816 71.7363 21.6 70.7283 21.6C69.6243 21.6 68.6403 21.848 67.7763 22.344C66.9123 22.84 66.2323 23.544 65.7363 24.456C65.2563 25.368 65.0163 26.424 65.0163 27.624C65.0163 28.824 65.2563 29.888 65.7363 30.816C66.2323 31.728 66.9123 32.432 67.7763 32.928C68.6403 33.424 69.6243 33.672 70.7283 33.672C72.2163 33.672 73.4243 33.256 74.3523 32.424C75.2803 31.592 75.8483 30.464 76.0563 29.04H69.7923V26.856H78.9843V28.992C78.8083 30.288 78.3443 31.48 77.5923 32.568C76.8563 33.656 75.8883 34.528 74.6883 35.184C73.5043 35.824 72.1843 36.144 70.7283 36.144C69.1603 36.144 67.7283 35.784 66.4323 35.064C65.1363 34.328 64.1043 33.312 63.3363 32.016C62.5843 30.72 62.2083 29.256 62.2083 27.624C62.2083 25.992 62.5843 24.528 63.3363 23.232C64.1043 21.936 65.1363 20.928 66.4323 20.208C67.7443 19.472 69.1763 19.104 70.7283 19.104C72.5043 19.104 74.0803 19.544 75.4563 20.424C76.8483 21.288 77.8563 22.52 78.4803 24.12H75.1923ZM84.3948 19.32V29.952C84.3948 31.216 84.7228 32.168 85.3788 32.808C86.0508 33.448 86.9788 33.768 88.1628 33.768C89.3628 33.768 90.2908 33.448 90.9468 32.808C91.6188 32.168 91.9548 31.216 91.9548 29.952V19.32H94.6908V29.904C94.6908 31.264 94.3948 32.416 93.8028 33.36C93.2108 34.304 92.4188 35.008 91.4268 35.472C90.4348 35.936 89.3388 36.168 88.1388 36.168C86.9388 36.168 85.8428 35.936 84.8508 35.472C83.8748 35.008 83.0988 34.304 82.5228 33.36C81.9468 32.416 81.6588 31.264 81.6588 29.904V19.32H84.3948ZM100.989 21.528V26.424H106.749V28.656H100.989V33.768H107.469V36H98.2531V19.296H107.469V21.528H100.989Z" fill="#3F8BE4"/>
<path d="M39.248 40.32C41.024 40.32 42.576 40.664 43.904 41.352C45.248 42.024 46.28 43 47 44.28C47.736 45.544 48.104 47.024 48.104 48.72C48.104 50.416 47.736 51.888 47 53.136C46.28 54.384 45.248 55.344 43.904 56.016C42.576 56.672 41.024 57 39.248 57H33.8V40.32H39.248ZM39.248 54.768C41.2 54.768 42.696 54.24 43.736 53.184C44.776 52.128 45.296 50.64 45.296 48.72C45.296 46.784 44.776 45.272 43.736 44.184C42.696 43.096 41.2 42.552 39.248 42.552H36.536V54.768H39.248ZM53.5516 42.528V47.424H59.3116V49.656H53.5516V54.768H60.0316V57H50.8156V40.296H60.0316V42.528H53.5516ZM71.0576 48.672L76.2416 57H73.1696L69.4016 50.952L65.8736 57H62.8256L68.0096 48.672L62.8016 40.32H65.8736L69.6656 46.416L73.2176 40.32H76.2656L71.0576 48.672Z" fill="#B8D0EC"/>
</svg>
