<svg width="181" height="48" viewBox="0 0 181 48" fill="none" xmlns="http://www.w3.org/2000/svg">
<path d="M6.688 31.448H14.048V35H2.208V12.664H6.688V31.448ZM21.3755 16.28V21.88H28.8955V25.432H21.3755V31.352H29.8555V35H16.8955V12.632H29.8555V16.28H21.3755ZM47.6228 30.744H38.7268L37.2548 35H32.5508L40.5828 12.632H45.7988L53.8308 35H49.0948L47.6228 30.744ZM46.4068 27.16L43.1748 17.816L39.9427 27.16H46.4068ZM72.385 19.384C71.873 18.4453 71.169 17.7307 70.273 17.24C69.377 16.7493 68.3317 16.504 67.137 16.504C65.8143 16.504 64.641 16.8027 63.617 17.4C62.593 17.9973 61.793 18.8507 61.217 19.96C60.641 21.0693 60.353 22.3493 60.353 23.8C60.353 25.2933 60.641 26.5947 61.217 27.704C61.8143 28.8133 62.6357 29.6667 63.681 30.264C64.7263 30.8613 65.9423 31.16 67.329 31.16C69.0357 31.16 70.433 30.712 71.521 29.816C72.609 28.8987 73.3237 27.6293 73.665 26.008H65.985V22.584H78.081V26.488C77.7823 28.0453 77.1423 29.4853 76.161 30.808C75.1797 32.1307 73.9103 33.1973 72.353 34.008C70.817 34.7973 69.089 35.192 67.169 35.192C65.0143 35.192 63.0623 34.712 61.313 33.752C59.585 32.7707 58.2197 31.416 57.217 29.688C56.2357 27.96 55.745 25.9973 55.745 23.8C55.745 21.6027 56.2357 19.64 57.217 17.912C58.2197 16.1627 59.585 14.808 61.313 13.848C63.0623 12.8667 65.0037 12.376 67.137 12.376C69.6543 12.376 71.841 12.9947 73.697 14.232C75.553 15.448 76.833 17.1653 77.537 19.384H72.385ZM85.8115 12.664V26.488C85.8115 28.0027 86.2062 29.1653 86.9955 29.976C87.7848 30.7653 88.8942 31.16 90.3235 31.16C91.7742 31.16 92.8942 30.7653 93.6835 29.976C94.4728 29.1653 94.8675 28.0027 94.8675 26.488V12.664H99.3795V26.456C99.3795 28.3547 98.9635 29.9653 98.1315 31.288C97.3208 32.5893 96.2222 33.5707 94.8355 34.232C93.4702 34.8933 91.9448 35.224 90.2595 35.224C88.5955 35.224 87.0808 34.8933 85.7155 34.232C84.3715 33.5707 83.3048 32.5893 82.5155 31.288C81.7262 29.9653 81.3315 28.3547 81.3315 26.456V12.664H85.8115ZM108.188 16.28V21.88H115.708V25.432H108.188V31.352H116.668V35H103.708V12.632H116.668V16.28H108.188Z" fill="#B8D0EC"/>
<path d="M128.547 12.664C130.894 12.664 132.953 13.1227 134.723 14.04C136.515 14.9573 137.891 16.2693 138.851 17.976C139.833 19.6613 140.323 21.624 140.323 23.864C140.323 26.104 139.833 28.0667 138.851 29.752C137.891 31.416 136.515 32.7067 134.723 33.624C132.953 34.5413 130.894 35 128.547 35H120.739V12.664H128.547ZM128.387 31.192C130.734 31.192 132.547 30.552 133.827 29.272C135.107 27.992 135.747 26.1893 135.747 23.864C135.747 21.5387 135.107 19.7253 133.827 18.424C132.547 17.1013 130.734 16.44 128.387 16.44H125.219V31.192H128.387ZM174.084 35L169.252 27.48L164.868 35H159.812L166.852 23.736L159.716 12.664H164.868L169.7 20.152L174.052 12.664H179.108L172.1 23.896L179.236 35H174.084Z" fill="#3A7ECD"/>
<path d="M148.157 16.28V21.88H155.677V25.432H148.157V31.352H156.637V35H143.677V12.632H156.637V16.28H148.157Z" fill="#18222F"/>
<rect x="145" y="26" width="11" height="4" fill="#3A7ECD"/>
<rect x="145" y="18" width="11" height="4" fill="#3A7ECD"/>
</svg>
